<svg width="26" height="28" viewBox="0 0 26 28" fill="none" xmlns="http://www.w3.org/2000/svg">
    <path d="M1.67869 8.5189V19.5037C1.67869 20.2099 2.04354 20.8488 2.65162 21.2075L12.0381 26.6998C12.6351 27.0473 13.3759 27.0473 13.9729 26.6998L23.3594 21.2075C23.9564 20.86 24.3323 20.2099 24.3323 19.5037V8.5189C24.3323 7.81274 23.9675 7.17382 23.3594 6.81514L13.9729 1.32274C13.3759 0.975264 12.6351 0.975264 12.0381 1.32274L2.65162 6.81514C2.05459 7.16261 1.68975 7.81274 1.68975 8.5189H1.67869Z" fill="#213147"/>
    <path d="M15.0453 16.141L13.7076 19.8624C13.6744 19.9632 13.6744 20.0753 13.7076 20.1874L16.0072 26.5877L18.6717 25.0297L15.4765 16.141C15.3991 15.9392 15.1227 15.9392 15.0453 16.141Z" fill="#12AAFF"/>
    <path d="M17.7319 9.88612C17.6545 9.68436 17.3781 9.68436 17.3008 9.88612L15.963 13.6075C15.9298 13.7084 15.9298 13.8205 15.963 13.9326L19.7331 24.4129L22.3975 22.8549L17.7319 9.89733V9.88612Z" fill="#12AAFF"/>
    <path d="M13 1.73739C13.0663 1.73739 13.1327 1.75981 13.188 1.79343L23.3373 7.73419C23.4589 7.80144 23.5253 7.93595 23.5253 8.07046V19.952C23.5253 20.0865 23.4479 20.221 23.3373 20.2882L13.188 26.229C13.1327 26.2626 13.0663 26.285 13 26.285C12.9337 26.285 12.8673 26.2626 12.812 26.229L2.66268 20.2882C2.54106 20.221 2.47473 20.0865 2.47473 19.952V8.05925C2.47473 7.92474 2.55212 7.79023 2.66268 7.72298L12.812 1.78223C12.8673 1.7486 12.9337 1.72618 13 1.72618V1.73739ZM13 0C12.6352 0 12.2814 0.0896717 11.9497 0.280224L1.80032 6.22098C1.14801 6.60208 0.75 7.29704 0.75 8.05925V19.9408C0.75 20.703 1.14801 21.3979 1.80032 21.779L11.9497 27.7198C12.2703 27.9103 12.6352 28 13 28C13.3648 28 13.7186 27.9103 14.0503 27.7198L24.1997 21.779C24.852 21.3979 25.25 20.703 25.25 19.9408V8.05925C25.25 7.29704 24.852 6.60208 24.1997 6.22098L14.0393 0.280224C13.7186 0.0896717 13.3538 0 12.9889 0H13Z" fill="#9DCCED"/>
    <path d="M6.278 24.4242L7.21776 21.8237L9.09727 23.4042L7.33937 25.0407L6.278 24.4242Z" fill="#213147"/>
    <path d="M12.1376 7.21842H9.56161C9.37366 7.21842 9.19676 7.34172 9.13043 7.52107L3.61351 22.8549L6.27799 24.413L12.3588 7.52107C12.414 7.36414 12.3035 7.20721 12.1487 7.20721L12.1376 7.21842Z" fill="white"/>
    <path d="M16.6484 7.21842H14.0724C13.8845 7.21842 13.7076 7.34172 13.6412 7.52107L7.33933 25.0295L10.0038 26.5875L16.8585 7.52107C16.9138 7.36414 16.8032 7.20721 16.6484 7.20721V7.21842Z" fill="white"/>
</svg>