<svg width="14" height="14" viewBox="0 0 14 14" fill="none" xmlns="http://www.w3.org/2000/svg">
    <g clip-path="url(#clip0_4_2862)">
        <path d="M13.4087 2.41477L11.6185 0.601932C10.8261 -0.196434 9.53943 -0.201826 8.74529 0.592946L6.75883 2.57606C5.96336 3.37038 5.95985 4.6643 6.75005 5.46221L7.88529 4.34621C7.77027 3.99083 7.91207 3.58379 8.19303 3.30209L9.4569 2.04097C9.85727 1.64336 10.4995 1.64515 10.8946 2.04546L11.9697 3.13271C12.3648 3.53302 12.3631 4.17773 11.9653 4.57624L10.7015 5.83826C10.4341 6.10513 9.99511 6.2516 9.65445 6.1577L8.54247 7.2746C9.33398 8.07476 10.6198 8.07836 11.4157 7.28359L13.4 5.30227C14.1976 4.5066 14.2003 3.21403 13.4087 2.41477Z" fill="#262441"/>
        <path d="M6.13516 9.67238C6.22954 10.0197 6.07852 10.469 5.80503 10.7421L4.62457 11.9224C4.21981 12.3267 3.56483 12.3245 3.16183 11.917L2.06522 10.8113C1.66309 10.4043 1.66573 9.74247 2.07048 9.33992L3.25182 8.15967C3.53981 7.87348 3.95334 7.72791 4.3142 7.85011L5.45295 6.69547C4.64696 5.88183 3.33523 5.87779 2.52572 6.68649L0.61038 8.60041C-0.200008 9.41045 -0.20396 10.7273 0.6016 11.5427L2.42519 13.3879C3.23031 14.2006 4.54116 14.2047 5.35242 13.396L7.26777 11.4821C8.07728 10.6711 8.08079 9.35519 7.27655 8.54065L6.13516 9.67238Z" fill="#262441"/>
        <path d="M4.89041 9.14589C5.15864 9.4231 5.59764 9.42579 5.87113 9.14949L9.14385 5.81765C9.41647 5.54044 9.41823 5.09206 9.14737 4.81396C8.87826 4.53765 8.44014 4.53586 8.1684 4.81126L4.8948 8.14221C4.62263 8.41851 4.62087 8.86689 4.89041 9.14589Z" fill="#262441"/>
    </g>
    <defs>
        <clipPath id="clip0_4_2862">
            <rect width="14" height="14" fill="white"/>
        </clipPath>
    </defs>
</svg>
