<svg width="26" height="27" viewBox="0 0 26 27" fill="none" xmlns="http://www.w3.org/2000/svg">
    <path d="M0.890529 11.8569L8.94657 0L13.0012 6.00696L8.8892 12.016H0.972483C0.954504 12.0157 0.936943 12.0104 0.921634 12.0008C0.906325 11.9911 0.893829 11.9775 0.885455 11.9612C0.87708 11.9449 0.873133 11.9267 0.874025 11.9083C0.874917 11.89 0.880618 11.8722 0.890529 11.8569Z" fill="#7E49FC"/>
    <path d="M25.1099 11.8569L17.0539 0L13.0013 6.00696L17.1112 12.016H25.028C25.0459 12.0157 25.0635 12.0104 25.0788 12.0008C25.0941 11.9911 25.1066 11.9775 25.115 11.9612C25.1234 11.9449 25.1273 11.9267 25.1264 11.9083C25.1255 11.89 25.1198 11.8722 25.1099 11.8569Z" fill="#7E49FC"/>
    <path d="M25.249 13.5693C25.27 15.2268 24.9686 16.872 24.3625 18.4095C23.7563 19.9469 22.8574 21.3461 21.7179 22.5257C20.5784 23.7054 19.221 24.642 17.7245 25.2813C16.2279 25.9205 14.622 26.2497 13 26.2497C11.378 26.2497 9.77211 25.9205 8.27557 25.2813C6.77904 24.642 5.42163 23.7054 4.28213 22.5257C3.14261 21.3461 2.2437 19.9469 1.63754 18.4095C1.03138 16.872 0.730048 15.2268 0.751025 13.5693H8.53662C8.5239 14.176 8.62981 14.7791 8.84821 15.3434C9.06658 15.9077 9.39302 16.4217 9.80835 16.8554C10.2237 17.289 10.7196 17.6335 11.267 17.8687C11.8143 18.104 12.4021 18.2251 12.9959 18.2251C13.5897 18.2251 14.1775 18.104 14.7249 17.8687C15.2722 17.6335 15.7681 17.289 16.1834 16.8554C16.5988 16.4217 16.9252 15.9077 17.1436 15.3434C17.362 14.7791 17.4679 14.176 17.4552 13.5693H25.249Z" fill="#0066FF"/>
</svg>
