<svg width="14" height="14" viewBox="0 0 14 14" fill="none" xmlns="http://www.w3.org/2000/svg">
    <path d="M14 8.62901C13.9993 7.20029 12.1814 6.09969 9.69231 5.96041V2.68512C9.69159 0.83066 7.25846 0 4.84615 0C2.43385 0 0.000717949 0.829942 0 2.68512V10.5969C0 12.4514 2.43385 13.2821 4.84615 13.2821C5.09528 13.2821 5.35088 13.2591 5.60503 13.2339C6.53406 13.753 7.84574 14 9.15385 14C11.5654 14 14 13.1693 14 11.3149V8.62901C14 8.62973 14 8.62973 14 8.62901ZM12.9231 8.63046C12.9231 9.39005 11.3113 10.2394 9.15385 10.2394C6.99641 10.2394 5.38462 9.39005 5.38462 8.63046C5.38462 8.35189 5.60503 8.06185 5.98627 7.80555C5.99919 7.79837 6.00925 7.78829 6.02145 7.78039C6.68484 7.34962 7.81344 7.02156 9.15385 7.02156C11.3113 7.02156 12.9231 7.87087 12.9231 8.63046ZM8.61539 5.22669C8.61539 5.55048 8.33107 5.82111 8.0604 6.00993C7.06174 6.12839 6.19949 6.40771 5.55262 6.80114C5.32288 6.82053 5.09168 6.83489 4.84686 6.83489C2.8165 6.83489 1.07762 5.95038 1.07762 5.22669V4.4714C2.01168 5.0831 3.43106 5.37169 4.84686 5.37169C6.26265 5.37169 7.68203 5.0831 8.61609 4.4714V5.22669H8.61539ZM1.07692 6.89159C1.94062 7.476 3.21211 7.84142 4.47929 7.90173C4.37016 8.13219 4.30769 8.37489 4.30769 8.62976C4.30769 8.62976 4.30769 8.62974 4.30769 8.63046V9.49775C2.51856 9.36062 1.07692 8.57159 1.07692 7.91251V6.89159ZM4.84615 1.07692C6.69918 1.07692 8.61539 1.67858 8.61539 2.68587C8.61539 3.7312 6.67333 4.29477 4.84615 4.29477C3.01897 4.29477 1.07692 3.7312 1.07692 2.68587C1.07692 1.67858 2.99313 1.07692 4.84615 1.07692ZM1.07692 10.5969V9.57671C1.90185 10.1346 3.09723 10.4928 4.30769 10.5761V11.3149C4.30769 11.6415 4.38667 11.9345 4.52451 12.1987C2.77775 12.1334 1.07692 11.5453 1.07692 10.5969ZM9.15385 12.9231C7.99149 12.9231 6.80472 12.6862 6.08175 12.2611C5.6517 12.0084 5.38532 11.6896 5.38532 11.3149V10.3571C6.25978 10.9502 7.59947 11.3163 9.15455 11.3163C10.7096 11.3163 12.0493 10.9502 12.9238 10.3571V11.3149C12.9231 12.3214 11.0069 12.9231 9.15385 12.9231Z" fill="#262441"/>
</svg>
