<svg width="14" height="12" viewBox="0 0 14 12" fill="none" xmlns="http://www.w3.org/2000/svg">
    <path d="M11.3077 0H2.69231C0.956308 0 0 0.913371 0 2.57143V9.42857C0 11.0866 0.956308 12 2.69231 12H11.3077C13.0437 12 14 11.0866 14 9.42857V2.57143C14 0.913371 13.0437 0 11.3077 0ZM2.69231 1.02857H11.3077C12.4399 1.02857 12.9231 1.49006 12.9231 2.57143V6.81529L10.0441 4.06624C9.57025 3.61298 8.73744 3.61298 8.2636 4.06624L4.84615 7.32958L4.30051 6.8091C3.82666 6.35584 2.99385 6.35584 2.52001 6.8091L1.07692 8.18739V2.57143C1.07692 1.49006 1.5601 1.02857 2.69231 1.02857ZM11.3077 10.9714H2.69231C1.63549 10.9714 1.15013 10.5627 1.08911 9.62946L3.28099 7.53599C3.37217 7.44959 3.44756 7.44959 3.53874 7.53599L4.21295 8.17986C4.54824 8.50077 5.1434 8.50008 5.47725 8.17986L9.02388 4.79247C9.11506 4.70607 9.19045 4.70607 9.28163 4.79247L12.9217 8.26908V9.42857C12.9231 10.5099 12.4399 10.9714 11.3077 10.9714ZM3.23077 3.94286C3.23077 3.46971 3.63282 3.08571 4.12821 3.08571C4.62359 3.08571 5.02564 3.46971 5.02564 3.94286C5.02564 4.416 4.62359 4.8 4.12821 4.8C3.63282 4.8 3.23077 4.416 3.23077 3.94286Z" fill="#131727" fill-opacity="0.5"/>
</svg>
