<svg version="1.2" xmlns="http://www.w3.org/2000/svg" viewBox="0 0 450 148" width="4000" height="1316">
    <title>orbiter-light-svg</title>
    <style>
        .s0 { fill: #0c0d0d }
        .s1 { fill: #eef4f2 }
        .s2 { fill: #ba3230 }
    </style>
    <g id="Layer">
        <path id="Layer" fill-rule="evenodd" class="s0" d="m229.1 133.9c0 3.2 0.1 6.5 0 9.7-0.1 2.5-0.9 4.5-3.9 4.5-3 0-4.2-1.8-4.2-4.6 0-6.2-0.1-12.5 0-18.7 0-2.1-0.3-3.1-2.8-3.1-9.2-0.1-18.5-0.3-27.7-0.6-2.3-0.1-3.6 0.6-4.7 2.7q-4.5 8.3-9.3 16.2c-1.7 2.9-4.5 3.4-7.3 1.4-2.7-1.9-1.6-4-0.2-6.1 2.8-4.1 5.5-8.3 8.3-12.4 1.5-2.1 1.3-2.9-1.5-3-7.5-0.3-14.9-1-22.2-3.1-5.4-1.6-5.9-3-2.9-7.6 3.5-5.3 8.5-9.2 13.6-12.6 2.3-1.5 2.7-2.9 1.9-5.5-4.2-16-5.2-32.1 0.3-47.7 8.1-22.6 24.1-36.5 48-40.5 16.2-2.7 31.5 0.3 45.2 9.3 10.9 7.2 18.3 17.3 22.9 29.8 5.9 16.4 5.1 32.6 0.3 48.9-1.1 3.8 0.5 5.3 3.2 7 5.2 3.3 10 7.1 13.2 12.4 2.2 3.7 1.8 4.4-2.3 5.8-7.5 2.5-15.4 3.1-23.2 4-3.9 0.5-3.9 0.5-1.6 3.8 2.6 3.8 5.3 7.6 7.8 11.4 1.3 2 2.6 4.4-0.2 6.2-2.7 1.7-4.9 0.9-6.5-1.9-3.2-5.4-6.5-10.6-9.8-15.9-0.8-1.3-1.5-2.3-3.4-2.3-9.2 0.2-18.5 0.4-27.7 0.3-2.7 0-3.9 0.4-3.6 3.4 0.5 3 0.3 5.9 0.3 8.8zm-8.1-126.6c-16.4 0.4-32.3 8.8-43 26.4-11 18.2-10.3 37.4-5.2 57.1 0.5 1.9 1.6 1.5 2.8 1.3 3.9-0.6 7.9-1.3 11.8-1.7 16.4-1.6 32.9-0.7 49.3-0.9 12.3-0.2 24.6 0.5 36.7 2.5 1.9 0.3 2.9-0.1 3.4-2.1 2.7-10.4 4.5-20.9 3.3-31.8-3-27.7-24.3-50.7-59.1-50.8zm37.7 98.1c-0.2 3.8 2.8 7.1 6.5 7.3 3.7 0.3 7.1-2.8 7.4-6.4 0.3-3.8-2.9-7.4-6.8-7.4-4.8 0-7.2 2.6-7.1 6.5zm-27.2 0.2c0-4-2.7-6.9-6.6-7-4-0.1-7 2.6-7 6.6-0.1 4.2 2.8 7.3 6.8 7.3 3.8 0 6.8-3 6.8-6.9zm-40.9-0.7c-0.1-3.9-3.1-6.6-7.1-6.4-3.8 0.1-6.6 3-6.5 6.7 0.1 3.8 3.2 6.9 7 6.8 3.8-0.1 6.7-3.2 6.6-7.1z"/>
        <path id="Layer" class="s1" d="m258.7 105.4c-0.1-3.9 2.3-6.5 7.1-6.5 3.9 0 7 3.6 6.8 7.4-0.2 3.7-3.7 6.7-7.4 6.4-3.7-0.2-6.7-3.5-6.5-7.3z"/>
        <path id="Layer" class="s1" d="m231.5 105.6c0 3.9-3 6.9-6.9 6.9-4-0.1-6.9-3.2-6.8-7.3 0.1-3.9 3-6.7 7-6.6 4 0.1 6.7 3 6.7 7z"/>
        <path id="Layer" class="s1" d="m190.6 104.9c0.1 3.8-2.8 6.9-6.6 7.1-3.7 0.1-6.9-2.9-7-6.8-0.1-3.7 2.7-6.6 6.5-6.7 4.1-0.1 7 2.5 7.1 6.4z"/>
        <path id="Layer" fill-rule="evenodd" class="s2" d="m212.8 36.6c8.3-4.5 16.4-4.2 24.6 0.4-0.1 1.7-1.6 3.3 0 5 1.7-0.9 0.9-2.7 1.6-3.9 6.2 4.8 9.2 11.1 9.6 18.9 0.4 7.8 1 15.7 1.7 23.5 0.3 3.4-1 4.9-4.4 4.7-14.1-0.7-28.2-0.9-42.3-0.2-3.1 0.2-4.7-1.1-4.4-4.4 0.7-8.7 1.2-17.4 2-26.1 0.7-7.1 4-12.7 10-16.8 1.3 1.1 0.2 3.2 1.8 4.5 1.5-1.9-0.1-3.7-0.2-5.6zm12 36.1c7.7-0.1 13.9-6.1 13.9-13.7 0.1-7.9-6.3-14.7-14.1-14.2-9.8 0.7-13.9 5.3-14.1 15.7-0.1 6 7.5 12.2 14.3 12.2z"/>
        <path id="Layer" class="s0" d="m239.1 38.2c-0.8 1.2 0.1 3-1.6 3.9-1.6-1.7-0.1-3.4 0-5 3.1-4.6 6.6-8.6 12.8-8.2 1.2 0.1 1.7-0.8 2.5-1.4q1.3-1.1 2.7 0c0.9 0.7 1 1.7 0.5 2.7-0.5 1-1.5 1.3-2.5 1.1-7.5-1.4-11.4 0.5-14.4 6.9z"/>
        <path id="Layer" class="s0" d="m212.8 36.6c0.1 1.8 1.6 3.6 0.2 5.7-1.6-1.3-0.5-3.4-1.8-4.5-1.5-4.6-5-6.9-9.5-7.9-1.6-0.4-2.8 0-4.1 1.1-0.9 0.7-2 0.2-2.6-0.6-0.6-0.7-0.6-1.6-0.1-2.4 0.5-0.8 1.5-1.4 2.2-1 2.7 1.9 6.2 1.3 9.1 2.9 2.9 1.5 4.9 4 6.6 6.7z"/>
        <path id="Layer" fill-rule="evenodd" class="s1" d="m224.8 72.7c-6.8 0-14.4-6.2-14.3-12.1 0.2-10.4 4.3-15.1 14.1-15.7 7.8-0.5 14.2 6.3 14.1 14.2 0 7.4-6.2 13.5-13.9 13.6zm-8.2-14.8c-0.1 5.3 2.9 8.8 7.8 9.2 4 0.3 8-2.8 8.7-6.7 0.8-4.8-1.7-8.1-7.4-9.4 0.9 2.8 1 5.4-1.5 7.4-2.7 1.8-5.2 1.1-7.6-0.5z"/>
        <path id="Layer" class="s0" d="m216.6 57.9c2.4 1.6 5 2.4 7.5 0.5 2.6-1.9 2.4-4.6 1.5-7.4 5.6 1.3 8.2 4.6 7.4 9.4-0.6 3.9-4.7 7-8.7 6.7-4.9-0.5-7.9-4-7.7-9.2z"/>
        <path id="Layer copy" fill-rule="evenodd" class="s0" d="m229.1 133.9c0 3.2 0.1 6.5 0 9.7-0.1 2.5-0.9 4.5-3.9 4.5-3 0-4.2-1.8-4.2-4.6 0-6.2-0.1-12.5 0-18.7 0-2.1-0.3-3.1-2.8-3.1-9.2-0.1-18.5-0.3-27.7-0.6-2.3-0.1-3.6 0.6-4.7 2.7q-4.5 8.3-9.3 16.2c-1.7 2.9-4.5 3.4-7.3 1.4-2.7-1.9-1.6-4-0.2-6.1 2.8-4.1 5.5-8.3 8.3-12.4 1.5-2.1 1.3-2.9-1.5-3-7.5-0.3-14.9-1-22.2-3.1-5.4-1.6-5.9-3-2.9-7.6 3.5-5.3 8.5-9.2 13.6-12.6 2.3-1.5 2.7-2.9 1.9-5.5-4.2-16-5.2-32.1 0.3-47.7 8.1-22.6 24.1-36.5 48-40.5 16.2-2.7 31.5 0.3 45.2 9.3 10.9 7.2 18.3 17.3 22.9 29.8 5.9 16.4 5.1 32.6 0.3 48.9-1.1 3.8 0.5 5.3 3.2 7 5.2 3.3 10 7.1 13.2 12.4 2.2 3.7 1.8 4.4-2.3 5.8-7.5 2.5-15.4 3.1-23.2 4-3.9 0.5-3.9 0.5-1.6 3.8 2.6 3.8 5.3 7.6 7.8 11.4 1.3 2 2.6 4.4-0.2 6.2-2.7 1.7-4.9 0.9-6.5-1.9-3.2-5.4-6.5-10.6-9.8-15.9-0.8-1.3-1.5-2.3-3.4-2.3-9.2 0.2-18.5 0.4-27.7 0.3-2.7 0-3.9 0.4-3.6 3.4 0.5 3 0.3 5.9 0.3 8.8zm-8.1-126.6c-16.4 0.4-32.3 8.8-43 26.4-11 18.2-10.3 37.4-5.2 57.1 0.5 1.9 1.6 1.5 2.8 1.3 3.9-0.6 7.9-1.3 11.8-1.7 16.4-1.6 32.9-0.7 49.3-0.9 12.3-0.2 24.6 0.5 36.7 2.5 1.9 0.3 2.9-0.1 3.4-2.1 2.7-10.4 4.5-20.9 3.3-31.8-3-27.7-24.3-50.7-59.1-50.8zm37.7 98.1c-0.2 3.8 2.8 7.1 6.5 7.3 3.7 0.3 7.1-2.8 7.4-6.4 0.3-3.8-2.9-7.4-6.8-7.4-4.8 0-7.2 2.6-7.1 6.5zm-27.2 0.2c0-4-2.7-6.9-6.6-7-4-0.1-7 2.6-7 6.6-0.1 4.2 2.8 7.3 6.8 7.3 3.8 0 6.8-3 6.8-6.9zm-40.9-0.7c-0.1-3.9-3.1-6.6-7.1-6.4-3.8 0.1-6.6 3-6.5 6.7 0.1 3.8 3.2 6.9 7 6.8 3.8-0.1 6.7-3.2 6.6-7.1z"/>
        <path id="Layer copy 2" class="s1" d="m258.7 105.4c-0.1-3.9 2.3-6.5 7.1-6.5 3.9 0 7 3.6 6.8 7.4-0.2 3.7-3.7 6.7-7.4 6.4-3.7-0.2-6.7-3.5-6.5-7.3z"/>
        <path id="Layer copy 3" class="s1" d="m231.5 105.6c0 3.9-3 6.9-6.9 6.9-4-0.1-6.9-3.2-6.8-7.3 0.1-3.9 3-6.7 7-6.6 4 0.1 6.7 3 6.7 7z"/>
        <path id="Layer copy 4" class="s1" d="m190.6 104.9c0.1 3.8-2.8 6.9-6.6 7.1-3.7 0.1-6.9-2.9-7-6.8-0.1-3.7 2.7-6.6 6.5-6.7 4.1-0.1 7 2.5 7.1 6.4z"/>
        <path id="Layer copy 5" fill-rule="evenodd" class="s2" d="m212.8 36.6c8.3-4.5 16.4-4.2 24.6 0.4-0.1 1.7-1.6 3.3 0 5 1.7-0.9 0.9-2.7 1.6-3.9 6.2 4.8 9.2 11.1 9.6 18.9 0.4 7.8 1 15.7 1.7 23.5 0.3 3.4-1 4.9-4.4 4.7-14.1-0.7-28.2-0.9-42.3-0.2-3.1 0.2-4.7-1.1-4.4-4.4 0.7-8.7 1.2-17.4 2-26.1 0.7-7.1 4-12.7 10-16.8 1.3 1.1 0.2 3.2 1.8 4.5 1.5-1.9-0.1-3.7-0.2-5.6zm12 36.1c7.7-0.1 13.9-6.1 13.9-13.7 0.1-7.9-6.3-14.7-14.1-14.2-9.8 0.7-13.9 5.3-14.1 15.7-0.1 6 7.5 12.2 14.3 12.2z"/>
        <path id="Layer copy 6" class="s0" d="m239.1 38.2c-0.8 1.2 0.1 3-1.6 3.9-1.6-1.7-0.1-3.4 0-5 3.1-4.6 6.6-8.6 12.8-8.2 1.2 0.1 1.7-0.8 2.5-1.4q1.3-1.1 2.7 0c0.9 0.7 1 1.7 0.5 2.7-0.5 1-1.5 1.3-2.5 1.1-7.5-1.4-11.4 0.5-14.4 6.9z"/>
        <path id="Layer copy 7" class="s0" d="m212.8 36.6c0.1 1.8 1.6 3.6 0.2 5.7-1.6-1.3-0.5-3.4-1.8-4.5-1.5-4.6-5-6.9-9.5-7.9-1.6-0.4-2.8 0-4.1 1.1-0.9 0.7-2 0.2-2.6-0.6-0.6-0.7-0.6-1.6-0.1-2.4 0.5-0.8 1.5-1.4 2.2-1 2.7 1.9 6.2 1.3 9.1 2.9 2.9 1.5 4.9 4 6.6 6.7z"/>
        <path id="Layer copy 8" fill-rule="evenodd" class="s1" d="m224.8 72.7c-6.8 0-14.4-6.2-14.3-12.1 0.2-10.4 4.3-15.1 14.1-15.7 7.8-0.5 14.2 6.3 14.1 14.2 0 7.4-6.2 13.5-13.9 13.6zm-8.2-14.8c-0.1 5.3 2.9 8.8 7.8 9.2 4 0.3 8-2.8 8.7-6.7 0.8-4.8-1.7-8.1-7.4-9.4 0.9 2.8 1 5.4-1.5 7.4-2.7 1.8-5.2 1.1-7.6-0.5z"/>
        <path id="Layer copy 9" class="s0" d="m216.6 57.9c2.4 1.6 5 2.4 7.5 0.5 2.6-1.9 2.4-4.6 1.5-7.4 5.6 1.3 8.2 4.6 7.4 9.4-0.6 3.9-4.7 7-8.7 6.7-4.9-0.5-7.9-4-7.7-9.2z"/>
    </g>
</svg>