<svg width="10" height="10" viewBox="0 0 10 10" fill="none" xmlns="http://www.w3.org/2000/svg">
    <path d="M10 0.600011V5.40009C10 5.7313 9.7312 6.00011 9.39999 6.00011C9.06878 6.00011 8.79998 5.7313 8.79998 5.40009V2.04886L1.02386 9.82498C0.907063 9.94178 0.753437 10.001 0.599834 10.001C0.446231 10.001 0.292605 9.94258 0.175803 9.82498C-0.058601 9.59057 -0.058601 9.21054 0.175803 8.97613L7.95192 1.20002H4.5999C4.2687 1.20002 3.99989 0.931216 3.99989 0.600011C3.99989 0.268805 4.2687 0 4.5999 0H9.39999C9.47839 0 9.55608 0.0160847 9.62968 0.0464852C9.77608 0.107286 9.89289 0.224093 9.95449 0.371296C9.98409 0.444097 10 0.521609 10 0.600011Z" fill="#D6D6D6"/>
</svg>
