<svg width="28" height="28" viewBox="0 0 28 28" fill="none" xmlns="http://www.w3.org/2000/svg">
    <path d="M26.0008 19.0036V2.49338C25.9786 1.11191 24.8962 0 23.5377 0H6.59406C2.93806 0.0561575 0 3.09988 0 6.82872C0 8.08665 0.331361 9.16486 0.839447 10.1083C1.27021 10.8945 1.94398 11.6358 2.6067 12.1862C2.79447 12.3433 2.70611 12.276 3.28047 12.6354C4.07573 13.1295 4.98144 13.3766 4.98144 13.3766L4.9704 23.2491C4.99249 23.7208 5.03668 24.1701 5.15817 24.5856C5.53371 25.9784 6.48361 27.0453 7.77592 27.5619C8.31714 27.7754 8.92464 27.9214 9.57631 27.9327L23.1068 27.9775C25.8019 27.9775 27.9889 25.7537 27.9889 23.002C27.9999 21.3734 27.2047 19.9134 26.0008 19.0036Z" fill="#FFEEDA"/>
    <path d="M26.3319 23.1256C26.2767 24.8889 24.8519 26.304 23.1067 26.304L13.7955 26.2703C14.5355 25.3943 14.9884 24.2599 14.9884 23.0245C14.9884 21.0815 13.8507 19.7449 13.8507 19.7449H23.1177C24.8961 19.7449 26.343 21.2161 26.343 23.0245L26.3319 23.1256Z" fill="#EBC28E"/>
    <path d="M3.49033 10.7935C2.41893 9.76019 1.66784 8.42365 1.66784 6.84001V6.67155C1.75621 3.96476 3.94318 1.78586 6.60511 1.70724H23.5487C23.9905 1.72971 24.344 2.04419 24.344 2.50468V17.0831C24.7305 17.1505 24.9182 17.2067 25.2938 17.3415C25.5921 17.4538 26.0008 17.6896 26.0008 17.6896V2.50468C25.9786 1.12321 24.8962 0.0112996 23.5377 0.0112996H6.59406C2.93806 0.0674559 0 3.11118 0 6.84001C0 9.00768 0.971991 10.8609 2.56251 12.1637C2.67297 12.2536 2.77238 12.3659 3.05956 12.3659C3.5566 12.3659 3.91005 11.9615 3.88796 11.5235C3.87691 11.1529 3.72228 11.0181 3.49033 10.7935Z" fill="#101010"/>
    <path d="M23.1068 18.0377H9.81934C8.92467 18.0489 8.20672 18.7791 8.20672 19.6887V21.6317C8.22881 22.5304 8.97991 23.2941 9.87458 23.2941H10.8576V21.6317H9.87458V19.7337C9.87458 19.7337 10.1176 19.7337 10.4158 19.7337C12.0947 19.7337 13.3318 21.3173 13.3318 23.0133C13.3318 24.5183 11.9842 26.4388 9.73098 26.2816C7.73178 26.1468 6.64933 24.3385 6.64933 23.0133V6.54795C6.64933 5.80668 6.05289 5.20018 5.3239 5.20018H3.99846V6.8849H4.98149V23.0245C4.92627 26.3041 7.27892 27.9551 9.73098 27.9551L23.118 28C25.813 28 28 25.7762 28 23.0245C28 20.2728 25.802 18.0377 23.1068 18.0377ZM26.3319 23.1256C26.2767 24.8889 24.8519 26.304 23.1067 26.304L13.7955 26.2703C14.5355 25.3943 14.9884 24.2599 14.9884 23.0245C14.9884 21.0815 13.8507 19.7449 13.8507 19.7449H23.1177C24.8961 19.7449 26.343 21.2161 26.343 23.0245L26.3319 23.1256Z" fill="#101010"/>
    <path d="M19.5279 7.18837H9.50981V5.50366H19.5279C19.9808 5.50366 20.3564 5.87429 20.3564 6.34601C20.3564 6.8065 19.9919 7.18837 19.5279 7.18837Z" fill="#101010"/>
    <path d="M19.5279 15.1175H9.50981V13.4327H19.5279C19.9808 13.4327 20.3564 13.8034 20.3564 14.2751C20.3564 14.7356 19.9919 15.1175 19.5279 15.1175Z" fill="#101010"/>
    <path d="M21.2952 11.1529H9.50981V9.46819H21.2841C21.7371 9.46819 22.1125 9.83882 22.1125 10.3105C22.1236 10.771 21.7481 11.1529 21.2952 11.1529Z" fill="#101010"/>
</svg>
