<svg width="20" height="20" viewBox="0 0 20 20" fill="none" xmlns="http://www.w3.org/2000/svg">
    <g clip-path="url(#clip0_4_1796)">
        <path d="M19.7282 15.4992C19.4943 15.9155 19.1446 16.2375 18.7158 16.4303L11.9657 19.5642C11.3411 19.8544 10.6713 20 10.0005 20C9.32971 20 8.65892 19.8544 8.03427 19.5642L1.27595 16.4262C0.856442 16.2375 0.505682 15.9165 0.271824 15.4992C0.0636081 15.129 0.195917 14.6603 0.567218 14.4521C0.936468 14.246 1.40623 14.3763 1.61445 14.7475C1.68727 14.8777 1.78574 14.969 1.91498 15.0264L8.68353 18.1685C9.50921 18.552 10.4928 18.552 11.3175 18.1685L18.0768 15.0305C18.2153 14.968 18.3138 14.8767 18.3866 14.7465C18.5938 14.3752 19.0625 14.244 19.4338 14.4511C19.8041 14.6603 19.9364 15.129 19.7282 15.4992ZM19.4338 10.019C19.0625 9.81182 18.5938 9.94208 18.3866 10.3143C18.3138 10.4446 18.2153 10.5358 18.0768 10.5984L11.3175 13.7363C10.4928 14.1199 9.50921 14.1199 8.68353 13.7363L1.91498 10.5943C1.78676 10.5368 1.6883 10.4456 1.61548 10.3153C1.40726 9.9441 0.93747 9.81387 0.56822 10.02C0.197944 10.2282 0.0656354 10.6968 0.272826 11.067C0.506684 11.4844 0.856449 11.8054 1.27698 11.9941L8.0353 15.132C8.65995 15.4223 9.33075 15.5679 10.0015 15.5679C10.6724 15.5679 11.3421 15.4223 11.9668 15.132L18.7169 11.9982C19.1456 11.8054 19.4964 11.4844 19.7302 11.067C19.9364 10.6948 19.8041 10.2261 19.4338 10.019ZM0 5.56837C0 4.69773 0.490267 3.93069 1.28005 3.56459L8.0353 0.43378C9.28357 -0.144593 10.7154 -0.144593 11.9647 0.43378L18.7199 3.56459C19.5097 3.93069 20 4.69876 20 5.56837C20 6.43798 19.5097 7.20607 18.7199 7.57217L11.9647 10.703C11.3411 10.9922 10.6703 11.1367 9.99948 11.1367C9.32868 11.1367 8.65892 10.9922 8.03427 10.703L1.27905 7.57217C0.490291 7.20607 0 6.439 0 5.56837ZM1.53854 5.56837C1.53854 5.66886 1.56623 6.00932 1.92728 6.1775L8.6825 9.30831C9.52049 9.69697 10.4816 9.69594 11.3175 9.30831L18.0727 6.1775C18.4338 6.01034 18.4615 5.66886 18.4615 5.56837C18.4615 5.46787 18.4338 5.12741 18.0727 4.95923L11.3175 1.82842C10.899 1.63461 10.4487 1.53719 9.99948 1.53719C9.55023 1.53719 9.10097 1.63461 8.68146 1.82842L1.92624 4.95923C1.56623 5.12741 1.53854 5.46787 1.53854 5.56837Z" fill="#131727"/>
    </g>
    <defs>
        <clipPath id="clip0_4_1796">
            <rect width="20" height="20" fill="white"/>
        </clipPath>
    </defs>
</svg>
