<svg version="1.2" xmlns="http://www.w3.org/2000/svg" viewBox="0 0 28 28" width="28" height="28">
    <title>Новий проєкт</title>
    <style>
        .s0 { fill: #3a7cfc }
        .s1 { fill: #2b1d11 }
        .s2 { fill: #f51808 }
        .s3 { fill: #7eb0fb }
        .s4 { fill: #e4fbf5 }
    </style>
    <path id="Layer" fill-rule="evenodd" class="s0" d="m9.5 2.6c1.2-1.1 2.8-2 4.9-2 3.5 0 5.7 2.2 6.6 3.8 2.6 0.1 5.4 2.1 5.7 5.5 0.1 2-0.5 3.5-1.6 4.6-0.9 1-2.2 1.4-3.1 1.6h-0.1-6.1v-1.1h6c0.8-0.2 1.8-0.5 2.6-1.3 0.7-0.8 1.3-2 1.2-3.7-0.2-2.8-2.6-4.5-4.9-4.5h-0.4l-0.1-0.3c-0.7-1.4-2.6-3.5-5.8-3.5-1.7 0-3.1 0.8-4.2 1.7-0.8 0.8-1.4 1.7-1.7 2.5l-0.2 0.3h-0.3q-0.1 0-0.3 0c-0.3 0.1-0.6 0.2-0.9 0.4-0.3 0.2-0.5 0.5-0.7 0.7l-0.2 0.3h-0.3c-1-0.1-1.9 0.1-2.6 0.6-0.8 0.7-1.3 1.7-1.3 3 0 1.5 0.7 2.5 1.5 3 0.9 0.6 1.9 0.8 2.6 0.8h3.7 0.1c0.8 0 2.6-0.1 3.7-1.6 0.9-1.2 0.9-2.7 0.9-3.7v-0.1q0-0.1 0-0.2h1.1q0 0.1 0 0.2v0.1c0 1 0 2.9-1.1 4.4-1.4 2-3.8 2-4.6 2q0 0 0 0h-0.1-3.7c-0.9 0-2.1-0.2-3.2-0.9-1.1-0.7-2-2-2-4 0-1.6 0.6-3 1.8-3.9 0.8-0.7 1.9-1 3-0.9 0.2-0.3 0.5-0.6 0.8-0.8 0.5-0.3 1-0.4 1.3-0.5q0.1 0 0.1 0c0.4-0.8 1-1.7 1.9-2.5z"/>
    <path id="Layer" class="s1" d="m21.9 16.1h0.1c0.9-0.2 2.2-0.6 3.1-1.6 1.1-1.1 1.7-2.6 1.6-4.6-0.3-3.4-3.1-5.4-5.7-5.5-0.9-1.6-3.1-3.8-6.6-3.8-2.1 0-3.7 0.9-4.9 2-0.9 0.8-1.5 1.7-1.9 2.5q0 0-0.1 0c-0.3 0.1-0.8 0.2-1.3 0.5-0.3 0.2-0.6 0.5-0.8 0.8-1.1-0.1-2.2 0.2-3 0.9-1.2 0.9-1.8 2.3-1.8 3.9 0 2 0.9 3.3 2 4 1.1 0.7 2.3 0.9 3.2 0.9h3.7 0.1c0.8 0 3.2 0 4.6-2 1.1-1.5 1.1-3.4 1.1-4.4v-0.1q0-0.1 0-0.2h0.6q0 0.1 0 0.2v0.1c0 1 0 3.1-1.3 4.8-1.6 2.2-4.2 2.2-5 2.2h-0.1-3.7c-0.9 0-2.3-0.2-3.5-1-1.3-0.9-2.3-2.3-2.3-4.5 0-1.8 0.8-3.4 2-4.4 0.9-0.6 2-1 3.1-1q0.3-0.3 0.8-0.7c0.5-0.3 1-0.4 1.3-0.5 0.5-0.8 1.1-1.7 1.9-2.4 1.3-1.2 3-2.2 5.3-2.2 3.6 0 5.8 2.1 6.9 3.8 2.8 0.3 5.7 2.4 5.9 6 0.2 2.2-0.5 3.9-1.7 5.1-1.1 1.1-2.4 1.6-3.5 1.8h-0.1-6.1v-0.6z"/>
    <path id="Layer" class="s2" d="m21.7 14.5h-5.9v-0.6h5.9c0.6-0.1 1.4-0.4 2-1 0.5-0.5 1-1.4 0.9-2.9-0.2-2.3-2.4-3.7-4.3-3.4l-0.6 0.1-0.3-0.6c-0.4-1.1-1.9-3.4-5-3.4-1.4 0-2.6 0.7-3.5 1.5-0.9 0.8-1.4 1.8-1.7 2.5l-0.2 0.5h-0.5c-0.2 0-0.4 0-0.6 0.1q-0.4 0-0.5 0.1-0.3 0.2-0.4 0.4c-0.1 0.2-0.2 0.3-0.2 0.4l-0.3 0.6-0.7-0.1c-0.8-0.2-1.6-0.1-2.2 0.3-0.5 0.5-0.9 1.2-0.9 2.2 0 1.1 0.5 1.8 1.1 2.2 0.6 0.4 1.4 0.5 2 0.5h3.7c0.8 0 2.2 0 3-1.1 0.7-0.9 0.7-2.1 0.7-3.2q0-0.1 0-0.2h0.5q0 0.1 0 0.2c0 1 0 2.5-0.8 3.6-0.9 1.3-2.6 1.3-3.4 1.3h-3.7c-0.6 0-1.6-0.2-2.3-0.7-0.8-0.5-1.4-1.3-1.4-2.6 0-1.2 0.5-2.1 1.2-2.6 0.7-0.5 1.7-0.7 2.6-0.5l0.3 0.1 0.1-0.2c0.1-0.2 0.4-0.7 0.8-1q0.3-0.2 0.7-0.3c0.3 0 0.5 0 0.7 0h0.2v-0.2c0.3-0.7 0.9-1.8 1.9-2.7 0.9-0.9 2.2-1.6 3.8-1.6 3.3 0 5.1 2.4 5.5 3.7l0.1 0.2 0.2-0.1c2.2-0.2 4.7 1.3 4.9 4 0.1 1.6-0.4 2.6-1.1 3.3-0.7 0.7-1.5 1.1-2.3 1.2z"/>
    <path id="Layer" class="s3" d="m14.4 1.6c-1.8 0-3.2 0.8-4.2 1.8-1 0.9-1.6 1.9-1.9 2.7q-0.3 0-0.6 0.1c-0.3 0-0.6 0.1-0.9 0.3-0.5 0.3-0.8 0.7-0.9 1-1.1-0.2-2.1 0-2.9 0.7-0.9 0.6-1.4 1.7-1.4 3 0 1.6 0.7 2.5 1.6 3.1 0.8 0.6 1.9 0.8 2.6 0.8h3.7 0.1c0.7-0.1 2.6-0.1 3.8-1.6 0.9-1.3 0.9-2.9 0.9-3.9q0-0.1 0-0.2h0.4q0 0.1 0 0.2v0.1c0 0.9 0.1 2.7-1 4.1-1.2 1.7-3.3 1.7-4.1 1.7h-0.1-3.7c-0.8 0-1.9-0.2-2.9-0.8-1-0.6-1.8-1.7-1.8-3.5 0-1.5 0.6-2.7 1.6-3.4 0.8-0.7 1.9-0.9 2.9-0.8 0.2-0.3 0.5-0.6 0.9-0.9 0.4-0.3 0.8-0.4 1.1-0.4q0.2-0.1 0.4-0.1c0.3-0.8 1-1.7 1.9-2.6 1.1-1 2.6-1.9 4.5-1.9 3.5 0 5.5 2.3 6.3 3.8 2.5 0 5.2 1.9 5.4 5 0.1 1.9-0.4 3.3-1.3 4.2-0.9 0.9-2.1 1.3-2.9 1.4h-0.1-6v-0.4h6c0.8-0.2 1.8-0.6 2.6-1.4 0.8-0.8 1.4-2 1.2-3.7-0.2-3-2.8-4.7-5.2-4.6-0.6-1.3-2.5-3.8-6-3.8z"/>
    <path id="Layer" fill-rule="evenodd" class="s4" d="m10.2 3.4c1-1 2.4-1.8 4.2-1.8 3.5 0 5.4 2.5 6 3.8 2.4-0.1 5 1.6 5.2 4.6 0.2 1.7-0.4 2.9-1.2 3.7-0.8 0.8-1.8 1.2-2.6 1.4h-6v-0.6h5.9c0.8-0.1 1.6-0.5 2.3-1.2 0.7-0.7 1.2-1.7 1.1-3.3-0.2-2.7-2.7-4.2-4.9-4l-0.2 0.1-0.1-0.2c-0.4-1.3-2.2-3.7-5.5-3.7-1.6 0-2.9 0.7-3.8 1.6-1 0.9-1.6 2-1.9 2.7v0.2h-0.2c-0.2 0-0.4 0-0.7 0q-0.4 0.1-0.7 0.3c-0.4 0.3-0.7 0.8-0.8 1l-0.1 0.2-0.3-0.1c-0.9-0.2-1.9 0-2.6 0.5-0.7 0.5-1.1 1.4-1.1 2.6 0 1.3 0.5 2.1 1.3 2.6 0.7 0.5 1.7 0.7 2.3 0.7h3.7c0.8 0 2.5 0 3.4-1.3 0.8-1.1 0.8-2.6 0.8-3.6q0-0.1 0-0.2h0.6q0 0.1 0 0.2c0 1 0 2.6-0.9 3.9-1.2 1.5-3.1 1.5-3.8 1.6q-0.1 0-0.1 0h-3.7c-0.7 0-1.8-0.2-2.6-0.8-0.9-0.6-1.6-1.5-1.6-3.1 0-1.3 0.5-2.4 1.4-3 0.8-0.7 1.8-0.9 2.9-0.7 0.1-0.3 0.4-0.7 0.9-1 0.3-0.2 0.6-0.3 0.9-0.3q0.3-0.1 0.6-0.1c0.3-0.8 0.9-1.8 1.9-2.7z"/>
</svg>