<svg width="28" height="28" viewBox="0 0 28 28" fill="none" xmlns="http://www.w3.org/2000/svg">
    <g clip-path="url(#clip0_4_1843)">
        <path fill-rule="evenodd" clip-rule="evenodd" d="M0 13.9998C0 21.7317 6.26784 27.9996 13.9998 27.9996C21.7317 27.9996 28 21.7317 28 13.9998C28 6.26784 21.7317 0 13.9998 0C6.26784 0 0 6.26784 0 13.9998Z" fill="#0C0C4F"/>
        <path fill-rule="evenodd" clip-rule="evenodd" d="M7.82483 10.7017L8.17042 9.63405C8.24066 9.41689 8.41205 9.24792 8.63001 9.18128L9.70292 8.85134C9.85143 8.80598 9.85263 8.59645 9.70533 8.54869L8.63724 8.20309C8.42048 8.13286 8.25149 7.96146 8.18447 7.7435L7.85492 6.6706C7.80957 6.52249 7.60005 6.52087 7.55227 6.66858L7.20668 7.73629C7.13644 7.95302 6.96505 8.12201 6.74709 8.18905L5.67418 8.51859C5.52567 8.56434 5.52406 8.77347 5.67177 8.82123L6.73986 9.16682C6.95662 9.23707 7.12561 9.40886 7.19263 9.62682L7.52218 10.6993C7.56753 10.8478 7.77705 10.8494 7.82483 10.7017Z" fill="#FAFAFA"/>
        <path fill-rule="evenodd" clip-rule="evenodd" d="M24.7832 10.0798C24.3408 9.58523 23.6506 9.30675 22.9795 9.19255C22.303 9.08288 21.5936 9.09305 20.9259 9.21169C19.5746 9.44027 18.3471 9.99977 17.2763 10.69C16.7203 11.0288 16.2462 11.4207 15.7549 11.8199C15.5182 12.0218 15.3025 12.2368 15.0777 12.4487L14.4636 13.0597C13.7964 13.7572 13.1387 14.3925 12.5023 14.919C11.8634 15.4431 11.2661 15.8412 10.6774 16.1192C10.0891 16.3987 9.45962 16.563 8.63913 16.5893C7.82585 16.618 6.86364 16.4712 5.83441 16.2289C4.79965 15.9877 3.71304 15.6439 2.49878 15.3481C2.92247 16.5235 3.56048 17.5622 4.37962 18.5117C5.20836 19.4448 6.24321 20.2951 7.57263 20.8543C8.88283 21.426 10.5293 21.6313 12.0689 21.3217C13.6125 21.0245 14.9671 20.3103 16.062 19.4841C17.1598 18.6496 18.0479 17.699 18.7967 16.7107C19.0033 16.4376 19.1126 16.2848 19.2622 16.0714L19.6756 15.459C19.9629 15.0803 20.2245 14.649 20.5087 14.2737C21.0663 13.4877 21.616 12.7026 22.2547 11.9794C22.5761 11.6125 22.9151 11.2616 23.3153 10.9244C23.5148 10.7598 23.7305 10.5987 23.9694 10.4536C24.2118 10.2971 24.4679 10.1746 24.7832 10.0798Z" fill="#EC796B"/>
        <path fill-rule="evenodd" clip-rule="evenodd" d="M24.7832 10.0797C24.3081 8.88066 23.4246 7.87135 22.2389 7.12657C21.0604 6.38996 19.4236 6.01405 17.8016 6.33449C17.0004 6.48946 16.224 6.78782 15.5428 7.18514C14.8646 7.58088 14.2569 8.05727 13.7308 8.56834C13.4682 8.82473 13.2298 9.09218 12.993 9.36116L12.3791 10.1438L11.431 11.4036C10.2224 13.0244 8.92083 14.924 6.78489 15.4869C4.68803 16.0394 3.77857 15.5501 2.49878 15.3479C2.73279 15.952 3.02264 16.5388 3.4156 17.0549C3.80124 17.5815 4.25675 18.076 4.82306 18.5001C5.10925 18.7037 5.4114 18.9047 5.74697 19.0752C6.08104 19.2398 6.44129 19.3848 6.82581 19.4938C7.59067 19.7034 8.45177 19.7769 9.28552 19.6641C10.1197 19.5528 10.9169 19.2885 11.6139 18.9375C12.3159 18.5896 12.9275 18.1661 13.4736 17.7191C14.5591 16.8177 15.4035 15.8216 16.1167 14.8147C16.4755 14.3113 16.8011 13.7985 17.1023 13.2854L17.4568 12.6746C17.5651 12.4961 17.6747 12.3164 17.786 12.1491C18.2352 11.477 18.6746 10.938 19.2082 10.5335C19.7343 10.1185 20.4671 9.81184 21.4462 9.74062C22.4212 9.66852 23.5469 9.80168 24.7832 10.0797Z" fill="#FAFAFA"/>
        <path fill-rule="evenodd" clip-rule="evenodd" d="M19.5081 20.0421C19.5081 20.9229 20.2224 21.6371 21.103 21.6371C21.9838 21.6371 22.697 20.9229 22.697 20.0421C22.697 19.1616 21.9838 18.4472 21.103 18.4472C20.2224 18.4472 19.5081 19.1616 19.5081 20.0421Z" fill="#EC796B"/>
    </g>
    <defs>
        <clipPath id="clip0_4_1843">
            <rect width="28" height="28" fill="white"/>
        </clipPath>
    </defs>
</svg>