<svg width="14" height="14" viewBox="0 0 14 14" fill="none" xmlns="http://www.w3.org/2000/svg">
    <g clip-path="url(#clip0_4_2860)">
        <path fill-rule="evenodd" clip-rule="evenodd" d="M12.0791 6.2099C11.8513 6.44855 11.482 6.44855 11.2542 6.2099C11.0264 5.97124 11.0264 5.58431 11.2542 5.34566L12.0084 4.55556H7C6.35567 4.55556 5.83333 5.10276 5.83333 5.77778V6.38889C5.83333 6.7264 5.57217 7 5.25 7C4.92783 7 4.66667 6.7264 4.66667 6.38889V5.77778C4.66667 4.42775 5.71134 3.33333 7 3.33333H12.0084L11.2542 2.54323C11.0264 2.30458 11.0264 1.91764 11.2542 1.67899C11.482 1.44034 11.8513 1.44034 12.0791 1.67899L13.7879 3.46911C13.795 3.47655 13.8019 3.48412 13.8086 3.49181C13.9262 3.60361 14 3.76499 14 3.94444C14 4.1239 13.9262 4.28528 13.8086 4.39708C13.8019 4.40477 13.795 4.41234 13.7879 4.41978L12.0791 6.2099ZM9.33333 7.61111C9.33333 7.2736 9.07217 7 8.75 7C8.42783 7 8.16667 7.2736 8.16667 7.61111V8.83333C8.16667 9.17084 7.9055 9.44444 7.58333 9.44444H1.99162L2.74581 8.65434C2.97362 8.41569 2.97362 8.02876 2.74581 7.7901C2.51801 7.55145 2.14866 7.55145 1.92085 7.7901L0.212102 9.58022C0.205004 9.58766 0.198107 9.59523 0.19141 9.60292C0.0738328 9.71472 0 9.8761 0 10.0556C0 10.235 0.0738331 10.3964 0.191411 10.5082C0.198107 10.5159 0.205004 10.5235 0.212102 10.5309L1.92085 12.321C2.14866 12.5597 2.51801 12.5597 2.74581 12.321C2.97362 12.0824 2.97362 11.6954 2.74581 11.4568L1.99162 10.6667H7.58333C8.54983 10.6667 9.33333 9.84585 9.33333 8.83333V7.61111Z" fill="#262441"/>
    </g>
    <defs>
        <clipPath id="clip0_4_2860">
            <rect width="14" height="14" fill="white"/>
        </clipPath>
    </defs>
</svg>
