<svg width="28" height="28" viewBox="0 0 28 28" fill="none" xmlns="http://www.w3.org/2000/svg">
    <path d="M14.0014 27.996C6.34812 28.0184 -0.207618 21.7315 0.00144906 13.5853C0.180649 6.32025 6.19878 -0.220546 14.4569 0.00345441C21.6697 0.197588 28.2404 6.18585 27.9865 14.5112C27.77 21.7688 21.8041 27.9736 14.0014 27.996ZM14.9497 15.2056C15.3529 15.5565 15.8084 15.8552 16.1518 16.2808C16.7118 16.9752 16.9881 17.7368 16.779 18.6403C16.4729 19.9395 15.0841 21.2461 13.6505 21.3283C12.874 21.3731 12.1348 21.2312 11.4926 20.7907C10.1785 19.8872 9.62598 18.1699 10.1188 16.6541C10.298 16.1091 10.298 16.1091 10.7982 16.3405C10.8057 16.348 10.8132 16.348 10.8206 16.3555C10.9998 16.46 11.0446 16.3853 11.0372 16.2061C11.0073 15.7432 11.0148 15.2728 10.9625 14.8099C10.9102 14.3693 10.9401 13.9213 10.843 13.4883C10.7534 13.4808 10.7012 13.5405 10.6414 13.5779C9.99185 14.0035 9.34972 14.4291 8.70758 14.8547C8.32678 15.1085 8.32678 15.116 8.75238 15.3176C8.93905 15.4072 8.99132 15.4819 8.89425 15.6909C8.47612 16.6168 8.35665 17.5875 8.52092 18.588C8.76732 20.0664 9.46918 21.2536 10.746 22.0824C11.8212 22.7843 13.0158 22.956 14.2553 22.7544C15.6889 22.5155 16.7566 21.6867 17.5556 20.5069C18.7876 18.6776 18.5636 16.6093 17.0329 15.0264C15.9801 13.9437 14.5913 13.4211 13.3369 12.6744C13.0532 12.4504 12.7694 12.2189 12.5305 11.9427C11.8958 11.2184 11.6121 10.3971 11.8361 9.43385C11.978 8.82159 12.299 8.29892 12.7097 7.82852C14.0612 6.27545 15.9204 6.20079 17.3241 7.31332C18.2052 8.01519 19.0489 9.47865 18.3844 11.2557C18.1828 11.7933 18.1977 11.8008 17.69 11.5768C17.6825 11.5693 17.675 11.5693 17.6676 11.5619C17.5332 11.4797 17.4884 11.5096 17.4958 11.6664C17.5257 12.1293 17.5406 12.5997 17.5705 13.0627C17.6004 13.5331 17.6526 14.0035 17.6974 14.5037C18.3993 14.0408 19.0788 13.5928 19.7508 13.1448C19.8926 13.0477 20.139 12.9955 20.1316 12.8312C20.1241 12.7043 19.8702 12.652 19.7209 12.5923C19.482 12.5027 19.4596 12.3832 19.5641 12.1517C20.2361 10.6061 20.266 9.06799 19.3924 7.58959C18.3769 5.86479 16.8537 5.05092 14.8452 5.16292C13.8297 5.21519 12.9785 5.67065 12.2318 6.31279C11.2014 7.19385 10.507 8.27652 10.3652 9.64292C10.2009 11.2035 10.8729 12.428 12.0153 13.436C12.8665 14.1976 13.9417 14.6381 14.9497 15.2056Z" fill="#E9EBFE"/>
    <path d="M13.314 12.6587C14.5684 13.4054 15.9647 13.928 17.01 15.0107C18.5407 16.5936 18.7647 18.6619 17.5327 20.4912C16.7338 21.671 15.666 22.4998 14.2324 22.7387C12.993 22.9403 11.8058 22.7611 10.7231 22.0667C9.45378 21.2379 8.74445 20.0507 8.49805 18.5723C8.33378 17.5718 8.45325 16.6011 8.87138 15.6752C8.96845 15.4662 8.91618 15.3915 8.72951 15.3019C8.30391 15.1003 8.31138 15.0928 8.68471 14.839C9.32685 14.4134 9.97645 13.9878 10.6186 13.5622C10.6783 13.5248 10.7306 13.4576 10.8202 13.4726C10.9172 13.9056 10.8948 14.3536 10.9396 14.7942C10.9919 15.2571 10.9919 15.72 11.0143 16.1904C11.0218 16.3696 10.977 16.4443 10.7978 16.3398C10.7903 16.3323 10.7828 16.3323 10.7754 16.3248C10.2751 16.0934 10.2751 16.0934 10.0959 16.6384C9.60311 18.1616 10.1556 19.8715 11.4698 20.775C12.1119 21.2155 12.8511 21.3574 13.6276 21.3126C15.0687 21.2379 16.45 19.9238 16.7562 18.6246C16.9727 17.7211 16.6964 16.9595 16.129 16.2651C15.7855 15.8395 15.33 15.5408 14.9268 15.1899C14.785 14.7419 14.4564 14.4134 14.2175 14.0326C13.9412 13.5771 13.5604 13.1664 13.314 12.6587Z" fill="#8C8EF9"/>
    <path d="M13.3141 12.6584C13.5605 13.1586 13.9413 13.5768 14.2399 14.0472C14.4863 14.428 14.8074 14.7565 14.9493 15.2045C13.9413 14.637 12.8661 14.204 11.985 13.4274C10.8426 12.4194 10.1706 11.1949 10.3349 9.63438C10.4767 8.26798 11.1711 7.17784 12.2015 6.30424C12.9557 5.66211 13.8069 5.21411 14.8149 5.15438C16.8234 5.04238 18.3466 5.86371 19.3621 7.58104C20.2357 9.05944 20.2133 10.5976 19.5338 12.1432C19.4293 12.3746 19.4517 12.4941 19.6906 12.5837C19.8399 12.6434 20.0938 12.6957 20.1013 12.8226C20.1087 12.9869 19.8623 13.0466 19.7205 13.1362C19.0485 13.5842 18.3765 14.0322 17.6671 14.4952C17.6223 13.9949 17.5701 13.5245 17.5402 13.0541C17.5103 12.5912 17.4954 12.1208 17.4655 11.6578C17.4581 11.501 17.5029 11.4712 17.6373 11.5533C17.6447 11.5608 17.6522 11.5608 17.6597 11.5682C18.1674 11.7922 18.1525 11.7848 18.3541 11.2472C19.0186 9.47011 18.1749 8.00664 17.2938 7.30478C15.8901 6.18478 14.0309 6.26691 12.6794 7.81998C12.2687 8.29038 11.9477 8.81304 11.8058 9.42531C11.5818 10.3885 11.8655 11.2098 12.5002 11.9341C12.7466 12.2104 13.0303 12.4344 13.3141 12.6584Z" fill="#51559C"/>
</svg>
