<svg width="20" height="21" viewBox="0 0 20 21" fill="none" xmlns="http://www.w3.org/2000/svg">
    <g clip-path="url(#clip0_4_1779)">
        <path d="M16.5385 4.60256H7.5641C5.33128 4.60256 4.10256 5.83128 4.10256 8.0641V17.0385C4.10256 19.2713 5.33128 20.5 7.5641 20.5H16.5385C18.7713 20.5 20 19.2713 20 17.0385V8.0641C20 5.83128 18.7713 4.60256 16.5385 4.60256ZM18.4615 17.0385C18.4615 18.4046 17.9046 18.9615 16.5385 18.9615H7.5641C6.19795 18.9615 5.64103 18.4046 5.64103 17.0385V8.0641C5.64103 6.69795 6.19795 6.14103 7.5641 6.14103H16.5385C17.9046 6.14103 18.4615 6.69795 18.4615 8.0641V17.0385ZM1.53846 3.95641V12.941C1.53846 14.1697 2.03394 14.4723 2.19702 14.5728C2.56009 14.7944 2.67271 15.2682 2.45117 15.6303C2.30553 15.8672 2.05336 15.9974 1.79387 15.9974C1.65746 15.9974 1.51786 15.9605 1.39273 15.8846C0.468626 15.3185 0 14.3287 0 12.941V3.95641C0 1.75948 1.26063 0.5 3.45653 0.5H12.4409C14.1691 0.5 14.9949 1.25792 15.3846 1.89279C15.6062 2.25484 15.4923 2.72869 15.1302 2.95023C14.7671 3.1728 14.2953 3.05794 14.0728 2.69589C13.9733 2.53281 13.6696 2.03746 12.4409 2.03746H3.45653C2.09448 2.03849 1.53846 2.59435 1.53846 3.95641Z" fill="#0094FF"/>
    </g>
    <defs>
        <clipPath id="clip0_4_1779">
            <rect width="20" height="20" fill="white" transform="translate(0 0.5)"/>
        </clipPath>
    </defs>
</svg>
