<svg width="24" height="24" viewBox="0 0 24 24" fill="none" xmlns="http://www.w3.org/2000/svg">
    <path d="M12.8334 19.3425C12.3645 19.3425 11.9063 19.4791 11.5165 19.735C11.1267 19.9909 10.8229 20.3546 10.6435 20.7801C10.464 21.2056 10.4171 21.6739 10.5086 22.1257C10.6 22.5774 10.8258 22.9923 11.1572 23.318C11.4888 23.6438 11.9111 23.8656 12.3709 23.9554C12.8308 24.0453 13.3073 23.9991 13.7405 23.8229C14.1736 23.6466 14.5438 23.3481 14.8042 22.9651C15.0647 22.5821 15.2037 22.1319 15.2037 21.6713C15.2037 21.0537 14.954 20.4614 14.5094 20.0246C14.0649 19.5879 13.462 19.3425 12.8334 19.3425Z" fill="black"/>
    <path d="M21.6239 9.90015C21.1551 9.90015 20.6968 10.0368 20.307 10.2926C19.9172 10.5485 19.6134 10.9123 19.434 11.3377C19.2546 11.7633 19.2076 12.2316 19.2991 12.6833C19.3906 13.1351 19.6163 13.55 19.9478 13.8757C20.2793 14.2014 20.7017 14.4232 21.1615 14.513C21.6213 14.6029 22.0979 14.5568 22.531 14.3806C22.9641 14.2043 23.3344 13.9058 23.5948 13.5228C23.8552 13.1398 23.9943 12.6896 23.9943 12.229C23.9943 11.6113 23.7446 11.019 23.3 10.5823C22.8555 10.1455 22.2526 9.90015 21.6239 9.90015Z" fill="black"/>
    <path d="M3.87034 9.90015C3.40155 9.90015 2.94326 10.0368 2.55345 10.2926C2.16364 10.5485 1.85986 10.9123 1.68045 11.3377C1.50104 11.7633 1.45406 12.2316 1.54557 12.6833C1.63702 13.1351 1.86278 13.55 2.19425 13.8757C2.52576 14.2014 2.94811 14.4232 3.40793 14.513C3.86775 14.6029 4.34431 14.5568 4.77746 14.3806C5.2106 14.2043 5.58079 13.9058 5.84124 13.5228C6.10169 13.1398 6.24069 12.6896 6.24069 12.229C6.24069 11.6113 5.99099 11.019 5.54643 10.5823C5.10192 10.1455 4.49901 9.90015 3.87034 9.90015Z" fill="black"/>
    <path d="M12.8334 4.65763C13.3024 4.65859 13.7611 4.52275 14.1516 4.26744C14.542 4.01212 14.8466 3.64876 15.0267 3.22329C15.2069 2.79783 15.2545 2.32943 15.1635 1.87738C15.0726 1.42534 14.8473 1.00992 14.5159 0.683749C14.1846 0.357618 13.7623 0.135345 13.3024 0.0451144C12.8424 -0.0451639 12.3656 0.000704955 11.9322 0.176826C11.4988 0.352948 11.1283 0.651407 10.8676 1.03448C10.6069 1.41756 10.4678 1.868 10.4678 2.32881C10.4678 2.94561 10.7168 3.53726 11.1604 3.97387C11.6039 4.41047 12.2055 4.65638 12.8334 4.65763Z" fill="black"/>
    <path d="M18.2269 15.2362C17.3789 14.398 16.903 13.2642 16.903 12.0824C16.903 10.9006 17.3789 9.76676 18.2269 8.92858C18.5575 8.60247 18.7823 8.18756 18.873 7.73607C18.9637 7.28454 18.9162 6.81678 18.7365 6.39174C18.5569 5.96679 18.253 5.60358 17.8634 5.34812C17.4738 5.09262 17.0159 4.9563 16.5475 4.9563C16.0791 4.9563 15.6211 5.09262 15.2316 5.34812C14.842 5.60358 14.5381 5.96679 14.3585 6.39174C14.1788 6.81678 14.1313 7.28454 14.222 7.73607C14.3127 8.18756 14.5375 8.60247 14.8681 8.92858C15.294 9.34316 15.6321 9.83665 15.8629 10.3804C16.0936 10.9241 16.2124 11.5074 16.2124 12.0965C16.2124 12.6856 16.0936 13.2689 15.8629 13.8126C15.6321 14.3564 15.294 14.8498 14.8681 15.2644C14.5375 15.5905 14.3127 16.0055 14.222 16.4569C14.1313 16.9085 14.1788 17.3762 14.3585 17.8013C14.5381 18.2263 14.842 18.5894 15.2316 18.8449C15.6211 19.1004 16.0791 19.2367 16.5475 19.2367C17.0159 19.2367 17.4738 19.1004 17.8634 18.8449C18.253 18.5894 18.5569 18.2263 18.7365 17.8013C18.9162 17.3762 18.9637 16.9085 18.873 16.4569C18.7823 16.0055 18.5575 15.5905 18.2269 15.2644V15.2362Z" fill="black"/>
    <path d="M11.4038 16.5937C11.4013 15.9823 11.1569 15.3957 10.7225 14.9579C9.87452 14.1197 9.39856 12.9859 9.39856 11.8041C9.39856 10.6222 9.87452 9.48849 10.7225 8.65026C11.0531 8.32425 11.2778 7.90924 11.3686 7.45775C11.4593 7.00626 11.4118 6.53851 11.2321 6.11351C11.0524 5.68847 10.7486 5.32535 10.359 5.0698C9.96942 4.81435 9.5115 4.67798 9.04307 4.67798C8.57464 4.67798 8.11677 4.81435 7.72715 5.0698C7.33758 5.32535 7.03374 5.68847 6.85403 6.11351C6.67441 6.53851 6.62689 7.00626 6.71757 7.45775C6.80833 7.90924 7.03312 8.32425 7.36365 8.65026C7.78888 9.06484 8.12641 9.55799 8.35672 10.1013C8.58702 10.6446 8.70558 11.2273 8.70558 11.8159C8.70558 12.4044 8.58702 12.9872 8.35672 13.5305C8.12641 14.0738 7.78888 14.5669 7.36365 14.9815C7.09077 15.2537 6.89027 15.5878 6.77987 15.9543C6.66947 16.3207 6.65248 16.7081 6.73048 17.0825C6.80853 17.4569 6.97907 17.8066 7.22718 18.1009C7.47534 18.3952 7.79329 18.625 8.1532 18.77C8.51305 18.915 8.90368 18.9708 9.29065 18.9325C9.67763 18.8941 10.0491 18.7627 10.3722 18.55C10.6953 18.3373 10.9602 18.0497 11.1434 17.7127C11.3267 17.3756 11.4227 16.9994 11.423 16.6172L11.4038 16.5937Z" fill="black"/>
</svg>
