<svg width="20" height="20" viewBox="0 0 20 20" fill="none" xmlns="http://www.w3.org/2000/svg">
    <path d="M16.9231 4.15077V3.84615C16.9231 1.36615 15.5569 0 13.0769 0H2.82051C1.26462 0 0 1.26462 0 2.82051V16.1538C0 18.6338 1.36615 20 3.84615 20H16.1538C18.6338 20 20 18.6338 20 16.1538V7.94872C20 5.73846 18.9149 4.41333 16.9231 4.15077ZM18.4615 13.8462H14.6154C13.6256 13.8462 12.8205 13.041 12.8205 12.0513C12.8205 11.0615 13.6256 10.2564 14.6154 10.2564H18.4615V13.8462ZM2.82051 1.53846H13.0769C14.6944 1.53846 15.3846 2.22872 15.3846 3.84615V4.10256H2.82051C2.11385 4.10256 1.53846 3.52718 1.53846 2.82051C1.53846 2.11385 2.11385 1.53846 2.82051 1.53846ZM16.1538 18.4615H3.84615C2.22872 18.4615 1.53846 17.7713 1.53846 16.1538V5.33228C1.92308 5.5292 2.35897 5.64103 2.82051 5.64103H16.1538C17.7713 5.64103 18.4615 6.33128 18.4615 7.94872V8.71795H14.6154C12.7774 8.71795 11.2821 10.2133 11.2821 12.0513C11.2821 13.8892 12.7774 15.3846 14.6154 15.3846H18.4615V16.1538C18.4615 17.7713 17.7713 18.4615 16.1538 18.4615ZM15.1385 11.0256H15.1487C15.7159 11.0256 16.1744 11.4851 16.1744 12.0513C16.1744 12.6174 15.7159 13.0769 15.1487 13.0769C14.5826 13.0769 14.118 12.6174 14.118 12.0513C14.118 11.4851 14.5723 11.0256 15.1385 11.0256Z" fill="#0094FF"/>
</svg>
