<svg width="31" height="28" viewBox="0 0 31 28" fill="none" xmlns="http://www.w3.org/2000/svg">
    <g clip-path="url(#clip0_4_1836)">
        <path d="M21.4301 22.75C21.4559 21.5147 21.4044 20.2794 21.4816 19.0441C21.5331 18.1949 21.1728 18.0662 20.4265 18.0919C17.8787 18.1176 15.3051 18.1176 12.5 18.1176C15.1507 16.1618 17.5956 14.3088 20.1176 12.5588C21.0699 11.8897 21.5846 11.2463 21.4816 10.011C21.3787 8.41544 21.4559 6.81985 21.4301 5.25C21.5073 5.25 21.6103 5.25 21.6875 5.25C24.3897 8.20956 27.2206 11.0404 30.1801 13.7426C30.1801 13.9228 30.1801 14.0772 30.1801 14.2574C30 14.3603 29.8198 14.4375 29.6654 14.5919C27.1434 17.0625 24.6471 19.5588 22.125 22.0551C21.9191 22.261 21.6103 22.3897 21.6875 22.7757C21.6103 22.75 21.5331 22.75 21.4301 22.75Z" fill="#45488F"/>
        <path d="M9.26033 6.30487C9.26033 7.48869 9.3118 8.26075 9.26033 9.03281C9.18313 10.0108 9.51769 10.4225 10.5728 10.371C12.5287 10.2938 14.5103 10.3453 16.6978 10.3453C15.1022 11.9409 13.378 13.099 11.6795 14.1799C9.80077 15.338 8.8743 16.7019 9.26033 18.9152C9.38901 19.61 9.28607 20.3306 9.28607 21.4372C7.40739 19.5328 5.78607 17.9372 4.16475 16.2902C3.39269 15.4924 2.08019 14.7203 2.00298 13.871C1.92578 12.996 3.36695 12.2755 4.13901 11.4777C5.7346 9.83061 7.38166 8.20928 9.26033 6.30487Z" fill="#8182FC"/>
    </g>
    <defs>
        <clipPath id="clip0_4_1836">
            <rect width="30.6507" height="17.5" fill="white" transform="translate(0.25 5.25)"/>
        </clipPath>
    </defs>
</svg>